<mxfile host="65bd71144e">
    <diagram id="tU967bUZyqu-3sGDfEwG" name="Page-1">
        <mxGraphModel dx="1047" dy="750" grid="0" gridSize="10" guides="1" tooltips="1" connect="1" arrows="1" fold="1" page="1" pageScale="1" pageWidth="1100" pageHeight="850" background="#050505" math="0" shadow="0">
            <root>
                <mxCell id="0"/>
                <mxCell id="1" parent="0"/>
                <mxCell id="159" style="edgeStyle=none;html=1;entryX=0.5;entryY=0;entryDx=0;entryDy=0;entryPerimeter=0;" parent="1" source="3" edge="1">
                    <mxGeometry relative="1" as="geometry">
                        <mxPoint x="363.505" y="505" as="targetPoint"/>
                    </mxGeometry>
                </mxCell>
                <mxCell id="160" style="edgeStyle=none;html=1;entryX=0.5;entryY=0;entryDx=0;entryDy=0;entryPerimeter=0;" parent="1" source="3" edge="1">
                    <mxGeometry relative="1" as="geometry">
                        <mxPoint x="751.835" y="505" as="targetPoint"/>
                    </mxGeometry>
                </mxCell>
                <mxCell id="3" value="" style="sketch=0;points=[[0,0,0],[0.25,0,0],[0.5,0,0],[0.75,0,0],[1,0,0],[0,1,0],[0.25,1,0],[0.5,1,0],[0.75,1,0],[1,1,0],[0,0.25,0],[0,0.5,0],[0,0.75,0],[1,0.25,0],[1,0.5,0],[1,0.75,0]];outlineConnect=0;fontColor=#232F3E;gradientColor=#945DF2;gradientDirection=north;fillColor=#5A30B5;strokeColor=#ffffff;dashed=0;verticalLabelPosition=bottom;verticalAlign=top;align=center;html=1;fontSize=12;fontStyle=0;aspect=fixed;shape=mxgraph.aws4.resourceIcon;resIcon=mxgraph.aws4.route_53;" parent="1" vertex="1">
                    <mxGeometry x="511" y="300" width="78" height="78" as="geometry"/>
                </mxCell>
                <mxCell id="161" style="edgeStyle=none;html=1;" parent="1" source="76" target="112" edge="1">
                    <mxGeometry relative="1" as="geometry"/>
                </mxCell>
                <mxCell id="76" value="Users" style="outlineConnect=0;dashed=0;verticalLabelPosition=bottom;verticalAlign=top;align=center;html=1;shape=mxgraph.aws3.users;fillColor=#D2D3D3;gradientColor=none;fontSize=12;fontColor=#FFFFFF;" parent="1" vertex="1">
                    <mxGeometry x="517" y="120" width="66" height="63" as="geometry"/>
                </mxCell>
                <mxCell id="112" value="Route 53&lt;br&gt;(Regional Routing)" style="text;html=1;align=center;verticalAlign=middle;resizable=0;points=[];autosize=1;strokeColor=none;fillColor=none;fontSize=12;" parent="1" vertex="1">
                    <mxGeometry x="490" y="260" width="120" height="40" as="geometry"/>
                </mxCell>
                <mxCell id="143" value="" style="group" parent="1" vertex="1" connectable="0">
                    <mxGeometry x="211" y="470" width="310" height="270" as="geometry"/>
                </mxCell>
                <mxCell id="113" value="AZ - USA (Ohio)" style="sketch=0;outlineConnect=0;gradientColor=none;html=1;whiteSpace=wrap;fontSize=12;fontStyle=0;shape=mxgraph.aws4.group;grIcon=mxgraph.aws4.group_availability_zone;strokeColor=#E8E8E8;fillColor=none;verticalAlign=top;align=left;spacingLeft=30;fontColor=#E8E8E8;dashed=1;" parent="143" vertex="1">
                    <mxGeometry width="310" height="270" as="geometry"/>
                </mxCell>
                <mxCell id="22" value="" style="group" parent="143" vertex="1" connectable="0">
                    <mxGeometry x="45" y="115" width="215" height="120" as="geometry"/>
                </mxCell>
                <mxCell id="23" value="" style="rounded=1;arcSize=10;dashed=1;fillColor=none;gradientColor=none;dashPattern=8 3 1 3;strokeWidth=2;" parent="22" vertex="1">
                    <mxGeometry width="215" height="120" as="geometry"/>
                </mxCell>
                <mxCell id="24" value="" style="sketch=0;points=[[0,0,0],[0.25,0,0],[0.5,0,0],[0.75,0,0],[1,0,0],[0,1,0],[0.25,1,0],[0.5,1,0],[0.75,1,0],[1,1,0],[0,0.25,0],[0,0.5,0],[0,0.75,0],[1,0.25,0],[1,0.5,0],[1,0.75,0]];outlineConnect=0;fontColor=#232F3E;gradientColor=#F78E04;gradientDirection=north;fillColor=#D05C17;strokeColor=#ffffff;dashed=0;verticalLabelPosition=bottom;verticalAlign=top;align=center;html=1;fontSize=12;fontStyle=0;aspect=fixed;shape=mxgraph.aws4.resourceIcon;resIcon=mxgraph.aws4.auto_scaling2;" parent="22" vertex="1">
                    <mxGeometry x="6.71875" y="6.666666666666668" width="18.26797385620915" height="18.26797385620915" as="geometry"/>
                </mxCell>
                <mxCell id="25" value="&lt;font color=&quot;#ffffff&quot; style=&quot;font-size: 12px;&quot;&gt;&lt;b style=&quot;&quot;&gt;EC2&lt;/b&gt;&lt;/font&gt;" style="points=[[0,0],[0.25,0],[0.5,0],[0.75,0],[1,0],[1,0.25],[1,0.5],[1,0.75],[1,1],[0.75,1],[0.5,1],[0.25,1],[0,1],[0,0.75],[0,0.5],[0,0.25]];outlineConnect=0;gradientColor=none;html=1;whiteSpace=wrap;fontSize=12;fontStyle=0;container=1;pointerEvents=0;collapsible=0;recursiveResize=0;shape=mxgraph.aws4.group;grIcon=mxgraph.aws4.group_ec2_instance_contents;strokeColor=#D86613;fillColor=none;verticalAlign=top;align=left;spacingLeft=30;fontColor=#D86613;dashed=0;" parent="22" vertex="1">
                    <mxGeometry x="13.4375" y="40.00000000000001" width="87.34375" height="64.00000000000001" as="geometry"/>
                </mxCell>
                <mxCell id="26" value="" style="outlineConnect=0;dashed=0;verticalLabelPosition=bottom;verticalAlign=top;align=center;html=1;shape=mxgraph.aws3.android;fillColor=#8CC64F;gradientColor=none;" parent="25" vertex="1">
                    <mxGeometry x="13.4375" y="24.000000000000004" width="25.8671875" height="29.333333333333343" as="geometry"/>
                </mxCell>
                <mxCell id="27" value="" style="outlineConnect=0;dashed=0;verticalLabelPosition=bottom;verticalAlign=top;align=center;html=1;shape=mxgraph.aws3.android;fillColor=#8CC64F;gradientColor=none;" parent="25" vertex="1">
                    <mxGeometry x="47.03125" y="24.000000000000004" width="25.8671875" height="29.333333333333343" as="geometry"/>
                </mxCell>
                <mxCell id="28" value="&lt;font color=&quot;#ffffff&quot;&gt;&lt;b&gt;EC2&lt;/b&gt;&lt;/font&gt;" style="points=[[0,0],[0.25,0],[0.5,0],[0.75,0],[1,0],[1,0.25],[1,0.5],[1,0.75],[1,1],[0.75,1],[0.5,1],[0.25,1],[0,1],[0,0.75],[0,0.5],[0,0.25]];outlineConnect=0;gradientColor=none;html=1;whiteSpace=wrap;fontSize=12;fontStyle=0;container=1;pointerEvents=0;collapsible=0;recursiveResize=0;shape=mxgraph.aws4.group;grIcon=mxgraph.aws4.group_ec2_instance_contents;strokeColor=#D86613;fillColor=none;verticalAlign=top;align=left;spacingLeft=30;fontColor=#D86613;dashed=0;" parent="22" vertex="1">
                    <mxGeometry x="114.21875" y="40.00000000000001" width="87.34375" height="64.00000000000001" as="geometry"/>
                </mxCell>
                <mxCell id="29" value="" style="outlineConnect=0;dashed=0;verticalLabelPosition=bottom;verticalAlign=top;align=center;html=1;shape=mxgraph.aws3.android;fillColor=#8CC64F;gradientColor=none;" parent="28" vertex="1">
                    <mxGeometry x="13.4375" y="24.000000000000004" width="25.8671875" height="29.333333333333343" as="geometry"/>
                </mxCell>
                <mxCell id="30" value="" style="outlineConnect=0;dashed=0;verticalLabelPosition=bottom;verticalAlign=top;align=center;html=1;shape=mxgraph.aws3.android;fillColor=#8CC64F;gradientColor=none;" parent="28" vertex="1">
                    <mxGeometry x="47.03125" y="24.000000000000004" width="25.8671875" height="29.333333333333343" as="geometry"/>
                </mxCell>
                <mxCell id="31" value="&lt;b style=&quot;border-color: rgb(0, 0, 0); color: rgb(255, 255, 255); font-family: Helvetica; font-style: normal; font-variant-ligatures: normal; font-variant-caps: normal; letter-spacing: normal; orphans: 2; text-align: left; text-indent: 0px; text-transform: none; widows: 2; word-spacing: 0px; -webkit-text-stroke-width: 0px; background-color: rgb(42, 37, 47); text-decoration-thickness: initial; text-decoration-style: initial; text-decoration-color: initial;&quot;&gt;&lt;font style=&quot;font-size: 12px;&quot;&gt;Auto Scaling Group&lt;/font&gt;&lt;/b&gt;" style="text;whiteSpace=wrap;html=1;fontSize=12;fontColor=#33333;" parent="22" vertex="1">
                    <mxGeometry x="30.234375" y="6.666666666666668" width="134.375" height="20.000000000000004" as="geometry"/>
                </mxCell>
                <mxCell id="56" style="edgeStyle=none;html=1;fontSize=12;entryX=0.5;entryY=0;entryDx=0;entryDy=0;" parent="143" target="25" edge="1">
                    <mxGeometry relative="1" as="geometry">
                        <mxPoint x="142.4258749999999" y="75" as="sourcePoint"/>
                    </mxGeometry>
                </mxCell>
                <mxCell id="57" style="edgeStyle=none;html=1;entryX=0.5;entryY=0;entryDx=0;entryDy=0;fontSize=12;" parent="143" target="28" edge="1">
                    <mxGeometry relative="1" as="geometry">
                        <mxPoint x="162.5821249999999" y="75" as="sourcePoint"/>
                    </mxGeometry>
                </mxCell>
                <mxCell id="167" value="" style="sketch=0;points=[[0,0,0],[0.25,0,0],[0.5,0,0],[0.75,0,0],[1,0,0],[0,1,0],[0.25,1,0],[0.5,1,0],[0.75,1,0],[1,1,0],[0,0.25,0],[0,0.5,0],[0,0.75,0],[1,0.25,0],[1,0.5,0],[1,0.75,0]];outlineConnect=0;fontColor=#232F3E;gradientColor=#945DF2;gradientDirection=north;fillColor=#5A30B5;strokeColor=#ffffff;dashed=0;verticalLabelPosition=bottom;verticalAlign=top;align=center;html=1;fontSize=12;fontStyle=0;aspect=fixed;shape=mxgraph.aws4.resourceIcon;resIcon=mxgraph.aws4.elastic_load_balancing;" vertex="1" parent="143">
                    <mxGeometry x="133.5" y="37" width="38" height="38" as="geometry"/>
                </mxCell>
                <mxCell id="170" value="Load balancer" style="text;html=1;align=center;verticalAlign=middle;resizable=0;points=[];autosize=1;strokeColor=none;fillColor=none;fontSize=12;" vertex="1" parent="143">
                    <mxGeometry x="169" y="41" width="100" height="30" as="geometry"/>
                </mxCell>
                <mxCell id="144" value="" style="group" parent="1" vertex="1" connectable="0">
                    <mxGeometry x="600" y="470" width="310" height="270" as="geometry"/>
                </mxCell>
                <mxCell id="114" value="AZ - Brazil (SP)" style="sketch=0;outlineConnect=0;gradientColor=none;html=1;whiteSpace=wrap;fontSize=12;fontStyle=0;shape=mxgraph.aws4.group;grIcon=mxgraph.aws4.group_availability_zone;strokeColor=#E8E8E8;fillColor=none;verticalAlign=top;align=left;spacingLeft=30;fontColor=#E8E8E8;dashed=1;" parent="144" vertex="1">
                    <mxGeometry width="310" height="270" as="geometry"/>
                </mxCell>
                <mxCell id="97" value="" style="group" parent="144" vertex="1" connectable="0">
                    <mxGeometry x="44.32999999999993" y="115" width="215" height="120" as="geometry"/>
                </mxCell>
                <mxCell id="98" value="" style="rounded=1;arcSize=10;dashed=1;fillColor=none;gradientColor=none;dashPattern=8 3 1 3;strokeWidth=2;" parent="97" vertex="1">
                    <mxGeometry width="215" height="120" as="geometry"/>
                </mxCell>
                <mxCell id="99" value="" style="sketch=0;points=[[0,0,0],[0.25,0,0],[0.5,0,0],[0.75,0,0],[1,0,0],[0,1,0],[0.25,1,0],[0.5,1,0],[0.75,1,0],[1,1,0],[0,0.25,0],[0,0.5,0],[0,0.75,0],[1,0.25,0],[1,0.5,0],[1,0.75,0]];outlineConnect=0;fontColor=#232F3E;gradientColor=#F78E04;gradientDirection=north;fillColor=#D05C17;strokeColor=#ffffff;dashed=0;verticalLabelPosition=bottom;verticalAlign=top;align=center;html=1;fontSize=12;fontStyle=0;aspect=fixed;shape=mxgraph.aws4.resourceIcon;resIcon=mxgraph.aws4.auto_scaling2;" parent="97" vertex="1">
                    <mxGeometry x="6.71875" y="6.666666666666668" width="18.26797385620915" height="18.26797385620915" as="geometry"/>
                </mxCell>
                <mxCell id="100" value="&lt;font color=&quot;#ffffff&quot; style=&quot;font-size: 12px;&quot;&gt;&lt;b style=&quot;&quot;&gt;EC2&lt;/b&gt;&lt;/font&gt;" style="points=[[0,0],[0.25,0],[0.5,0],[0.75,0],[1,0],[1,0.25],[1,0.5],[1,0.75],[1,1],[0.75,1],[0.5,1],[0.25,1],[0,1],[0,0.75],[0,0.5],[0,0.25]];outlineConnect=0;gradientColor=none;html=1;whiteSpace=wrap;fontSize=12;fontStyle=0;container=1;pointerEvents=0;collapsible=0;recursiveResize=0;shape=mxgraph.aws4.group;grIcon=mxgraph.aws4.group_ec2_instance_contents;strokeColor=#D86613;fillColor=none;verticalAlign=top;align=left;spacingLeft=30;fontColor=#D86613;dashed=0;" parent="97" vertex="1">
                    <mxGeometry x="13.4375" y="40.00000000000001" width="87.34375" height="64.00000000000001" as="geometry"/>
                </mxCell>
                <mxCell id="101" value="" style="outlineConnect=0;dashed=0;verticalLabelPosition=bottom;verticalAlign=top;align=center;html=1;shape=mxgraph.aws3.android;fillColor=#8CC64F;gradientColor=none;" parent="100" vertex="1">
                    <mxGeometry x="13.4375" y="24.000000000000004" width="25.8671875" height="29.333333333333343" as="geometry"/>
                </mxCell>
                <mxCell id="102" value="" style="outlineConnect=0;dashed=0;verticalLabelPosition=bottom;verticalAlign=top;align=center;html=1;shape=mxgraph.aws3.android;fillColor=#8CC64F;gradientColor=none;" parent="100" vertex="1">
                    <mxGeometry x="47.03125" y="24.000000000000004" width="25.8671875" height="29.333333333333343" as="geometry"/>
                </mxCell>
                <mxCell id="103" value="&lt;font color=&quot;#ffffff&quot;&gt;&lt;b&gt;EC2&lt;/b&gt;&lt;/font&gt;" style="points=[[0,0],[0.25,0],[0.5,0],[0.75,0],[1,0],[1,0.25],[1,0.5],[1,0.75],[1,1],[0.75,1],[0.5,1],[0.25,1],[0,1],[0,0.75],[0,0.5],[0,0.25]];outlineConnect=0;gradientColor=none;html=1;whiteSpace=wrap;fontSize=12;fontStyle=0;container=1;pointerEvents=0;collapsible=0;recursiveResize=0;shape=mxgraph.aws4.group;grIcon=mxgraph.aws4.group_ec2_instance_contents;strokeColor=#D86613;fillColor=none;verticalAlign=top;align=left;spacingLeft=30;fontColor=#D86613;dashed=0;" parent="97" vertex="1">
                    <mxGeometry x="114.21875" y="40.00000000000001" width="87.34375" height="64.00000000000001" as="geometry"/>
                </mxCell>
                <mxCell id="104" value="" style="outlineConnect=0;dashed=0;verticalLabelPosition=bottom;verticalAlign=top;align=center;html=1;shape=mxgraph.aws3.android;fillColor=#8CC64F;gradientColor=none;" parent="103" vertex="1">
                    <mxGeometry x="13.4375" y="24.000000000000004" width="25.8671875" height="29.333333333333343" as="geometry"/>
                </mxCell>
                <mxCell id="105" value="" style="outlineConnect=0;dashed=0;verticalLabelPosition=bottom;verticalAlign=top;align=center;html=1;shape=mxgraph.aws3.android;fillColor=#8CC64F;gradientColor=none;" parent="103" vertex="1">
                    <mxGeometry x="47.03125" y="24.000000000000004" width="25.8671875" height="29.333333333333343" as="geometry"/>
                </mxCell>
                <mxCell id="106" value="&lt;b style=&quot;border-color: rgb(0, 0, 0); color: rgb(255, 255, 255); font-family: Helvetica; font-style: normal; font-variant-ligatures: normal; font-variant-caps: normal; letter-spacing: normal; orphans: 2; text-align: left; text-indent: 0px; text-transform: none; widows: 2; word-spacing: 0px; -webkit-text-stroke-width: 0px; background-color: rgb(42, 37, 47); text-decoration-thickness: initial; text-decoration-style: initial; text-decoration-color: initial;&quot;&gt;&lt;font style=&quot;font-size: 12px;&quot;&gt;Auto Scaling Group&lt;/font&gt;&lt;/b&gt;" style="text;whiteSpace=wrap;html=1;fontSize=12;fontColor=#33333;" parent="97" vertex="1">
                    <mxGeometry x="30.234375" y="6.666666666666668" width="134.375" height="20.000000000000004" as="geometry"/>
                </mxCell>
                <mxCell id="107" style="edgeStyle=none;html=1;fontSize=12;entryX=0.5;entryY=0;entryDx=0;entryDy=0;" parent="144" target="100" edge="1">
                    <mxGeometry relative="1" as="geometry">
                        <mxPoint x="141.75587500000006" y="75" as="sourcePoint"/>
                    </mxGeometry>
                </mxCell>
                <mxCell id="108" style="edgeStyle=none;html=1;entryX=0.5;entryY=0;entryDx=0;entryDy=0;fontSize=12;" parent="144" target="103" edge="1">
                    <mxGeometry relative="1" as="geometry">
                        <mxPoint x="161.91212500000006" y="75" as="sourcePoint"/>
                    </mxGeometry>
                </mxCell>
                <mxCell id="168" value="" style="sketch=0;points=[[0,0,0],[0.25,0,0],[0.5,0,0],[0.75,0,0],[1,0,0],[0,1,0],[0.25,1,0],[0.5,1,0],[0.75,1,0],[1,1,0],[0,0.25,0],[0,0.5,0],[0,0.75,0],[1,0.25,0],[1,0.5,0],[1,0.75,0]];outlineConnect=0;fontColor=#232F3E;gradientColor=#945DF2;gradientDirection=north;fillColor=#5A30B5;strokeColor=#ffffff;dashed=0;verticalLabelPosition=bottom;verticalAlign=top;align=center;html=1;fontSize=12;fontStyle=0;aspect=fixed;shape=mxgraph.aws4.resourceIcon;resIcon=mxgraph.aws4.elastic_load_balancing;" vertex="1" parent="144">
                    <mxGeometry x="132.82999999999993" y="37" width="38" height="38" as="geometry"/>
                </mxCell>
                <mxCell id="171" value="Load balancer" style="text;html=1;align=center;verticalAlign=middle;resizable=0;points=[];autosize=1;strokeColor=none;fillColor=none;fontSize=12;" vertex="1" parent="144">
                    <mxGeometry x="170.82999999999993" y="41" width="100" height="30" as="geometry"/>
                </mxCell>
                <mxCell id="162" value="VPC" style="points=[[0,0],[0.25,0],[0.5,0],[0.75,0],[1,0],[1,0.25],[1,0.5],[1,0.75],[1,1],[0.75,1],[0.5,1],[0.25,1],[0,1],[0,0.75],[0,0.5],[0,0.25]];outlineConnect=0;gradientColor=none;html=1;whiteSpace=wrap;fontSize=12;fontStyle=0;container=1;pointerEvents=0;collapsible=0;recursiveResize=0;shape=mxgraph.aws4.group;grIcon=mxgraph.aws4.group_vpc;strokeColor=#248814;fillColor=none;verticalAlign=top;align=left;spacingLeft=30;fontColor=#AAB7B8;dashed=0;" vertex="1" parent="1">
                    <mxGeometry x="180" y="438" width="350" height="312" as="geometry"/>
                </mxCell>
                <mxCell id="163" value="VPC" style="points=[[0,0],[0.25,0],[0.5,0],[0.75,0],[1,0],[1,0.25],[1,0.5],[1,0.75],[1,1],[0.75,1],[0.5,1],[0.25,1],[0,1],[0,0.75],[0,0.5],[0,0.25]];outlineConnect=0;gradientColor=none;html=1;whiteSpace=wrap;fontSize=12;fontStyle=0;container=1;pointerEvents=0;collapsible=0;recursiveResize=0;shape=mxgraph.aws4.group;grIcon=mxgraph.aws4.group_vpc;strokeColor=#248814;fillColor=none;verticalAlign=top;align=left;spacingLeft=30;fontColor=#AAB7B8;dashed=0;" vertex="1" parent="1">
                    <mxGeometry x="570" y="438" width="350" height="312" as="geometry"/>
                </mxCell>
                <mxCell id="172" value="" style="rounded=1;arcSize=10;dashed=1;strokeColor=#F59D56;fillColor=none;gradientColor=none;dashPattern=8 4;strokeWidth=2;" vertex="1" parent="1">
                    <mxGeometry x="150" y="80" width="820" height="710" as="geometry"/>
                </mxCell>
                <mxCell id="173" value="" style="outlineConnect=0;dashed=0;verticalLabelPosition=bottom;verticalAlign=top;align=center;html=1;shape=mxgraph.aws3.cloud_2;fillColor=#F58534;gradientColor=none;strokeColor=#000000;" vertex="1" parent="1">
                    <mxGeometry x="150" y="80" width="75" height="75" as="geometry"/>
                </mxCell>
            </root>
        </mxGraphModel>
    </diagram>
</mxfile>